# Blender v2.74 (sub 0) OBJ File: ''
# www.blender.org
mtllib car-body.mtl
o windows
v -0.462759 1.124152 0.452929
v -0.462759 1.124152 -0.452929
v -0.643443 0.638450 0.529100
v -0.643443 0.638450 -0.529100
v -0.125187 1.124152 -0.452929
v -0.125187 1.124152 0.452929
v -0.151276 0.638450 -0.529100
v -0.151276 0.638450 0.529100
v 0.138458 1.124152 0.452929
v 0.138458 1.124152 -0.452929
v 0.319141 0.638450 0.529100
v 0.319141 0.638450 -0.529100
v -0.048484 1.124152 -0.452929
v -0.048484 1.124152 0.452929
v -0.063476 0.638450 -0.529100
v -0.063476 0.638450 0.529100
vn -0.937200 0.348700 0.000000
vn 0.998600 -0.053600 0.000000
vn 0.000000 1.000000 0.000000
vn 0.000000 -1.000000 0.000000
vn 0.000000 0.154900 0.987900
vn 0.000000 0.154900 -0.987900
vn 0.937200 0.348700 0.000000
vn -0.999500 0.030900 0.000000
usemtl Standard
s 1
f 2//1 4//1 3//1
f 2//1 3//1 1//1
f 6//2 8//2 7//2
f 6//2 7//2 5//2
f 2//3 1//3 6//3
f 2//3 6//3 5//3
f 3//4 4//4 7//4
f 3//4 7//4 8//4
f 1//5 3//5 8//5
f 1//5 8//5 6//5
f 5//6 7//6 4//6
f 5//6 4//6 2//6
f 9//7 11//7 12//7
f 9//7 12//7 10//7
f 13//8 15//8 16//8
f 13//8 16//8 14//8
f 13//3 14//3 9//3
f 13//3 9//3 10//3
f 16//4 15//4 12//4
f 16//4 12//4 11//4
f 14//5 16//5 11//5
f 14//5 11//5 9//5
f 10//6 12//6 15//6
f 10//6 15//6 13//6
o wheels
v 0.000000 0.411450 -0.433400
v 0.198357 0.296925 -0.433400
v 0.198357 0.067875 -0.433400
v 0.000000 -0.046650 -0.433400
v -0.198357 0.067875 -0.433400
v -0.198357 0.296925 -0.433400
v 0.000000 0.411450 0.433400
v 0.198357 0.296925 0.433400
v 0.198357 0.067875 0.433400
v 0.000000 -0.046650 0.433400
v -0.198357 0.067875 0.433400
v -0.198357 0.296925 0.433400
v 0.000000 0.182400 -0.433400
v 0.000000 0.182400 0.433400
vn 0.500000 0.866000 -0.000000
vn 1.000000 0.000000 0.000000
vn 0.500000 -0.866000 0.000000
vn -0.500000 -0.866000 0.000000
vn -1.000000 0.000000 0.000000
vn -0.500000 0.866000 -0.000000
vn 0.000000 -0.000000 -1.000000
vn 0.000000 0.000000 1.000000
usemtl Standard
s 1
f 17//9 23//9 24//9
f 17//9 24//9 18//9
f 18//10 24//10 25//10
f 18//10 25//10 19//10
f 19//11 25//11 26//11
f 19//11 26//11 20//11
f 20//12 26//12 27//12
f 20//12 27//12 21//12
f 21//13 27//13 28//13
f 21//13 28//13 22//13
f 22//14 28//14 23//14
f 22//14 23//14 17//14
f 17//15 18//15 29//15
f 18//15 19//15 29//15
f 19//15 20//15 29//15
f 20//15 21//15 29//15
f 21//15 22//15 29//15
f 22//15 17//15 29//15
f 24//16 23//16 30//16
f 25//16 24//16 30//16
f 26//16 25//16 30//16
f 27//16 26//16 30//16
f 28//16 27//16 30//16
f 23//16 28//16 30//16
o car_body
v 0.848850 0.572950 0.500000
v 0.848850 0.572950 -0.500000
v 0.848850 0.191850 0.500000
v 0.848850 0.191850 -0.500000
v -0.848850 0.572950 -0.500000
v -0.848850 0.572950 0.500000
v -0.848850 0.191850 -0.500000
v -0.848850 0.191850 0.500000
v -0.712070 0.572950 0.500000
v -0.712070 0.572950 -0.500000
v 0.398833 0.572950 0.500000
v 0.398833 0.572950 -0.500000
v 0.161966 1.187852 0.404287
v -0.483147 1.187852 0.404287
v 0.161966 1.187852 -0.404287
v -0.483147 1.187852 -0.404287
v -0.639200 0.191850 -0.500000
v -0.639200 0.191850 0.500000
v -0.639200 0.572950 0.500000
v -0.639200 0.572950 -0.500000
v -0.515655 0.399443 -0.500000
v -0.480049 0.572950 -0.500000
v -0.515655 0.399443 0.500000
v -0.480049 0.572950 0.500000
v -0.291298 0.399443 -0.500000
v -0.318994 0.572950 -0.500000
v -0.291298 0.399443 0.500000
v -0.318994 0.572950 0.500000
v -0.165956 0.191850 -0.500000
v -0.160093 0.572950 -0.500000
v -0.165956 0.191850 0.500000
v -0.160093 0.572950 0.500000
v 0.308262 0.191850 -0.500000
v 0.239592 0.572950 -0.500000
v 0.308262 0.191850 0.500000
v 0.239592 0.572950 0.500000
v 0.364278 0.191850 -0.500000
v 0.339545 0.572950 -0.500000
v 0.364278 0.191850 0.500000
v 0.339545 0.572950 0.500000
v 0.483635 0.392776 -0.500000
v 0.451641 0.572950 -0.500000
v 0.483635 0.392776 0.500000
v 0.451641 0.572950 0.500000
v 0.665395 0.392776 -0.500000
v 0.571431 0.572950 -0.500000
v 0.665395 0.392776 0.500000
v 0.571431 0.572950 0.500000
v 0.804679 0.191850 -0.500000
v 0.663571 0.572950 -0.500000
v 0.804679 0.191850 0.500000
v 0.663571 0.572950 0.500000
vn 1.000000 0.000000 0.000000
vn -1.000000 0.000000 0.000000
vn 0.000000 1.000000 0.000000
vn 0.000000 -1.000000 -0.000000
vn 0.000000 0.000000 1.000000
vn 0.000000 0.000000 -1.000000
vn 0.000000 0.153800 0.988100
vn 0.933200 0.359500 0.000000
vn 0.000000 0.153800 -0.988100
vn -0.937200 0.348900 0.000000
vn 0.859300 -0.511400 0.000000
vn -0.856100 -0.516900 0.000000
vn 0.859700 -0.510700 0.000000
vn -0.821800 -0.569700 0.000000
usemtl b0b0b0
s 1
f 31//17 33//17 34//17
f 31//17 34//17 32//17
f 35//18 37//18 38//18
f 35//18 38//18 36//18
f 35//19 36//19 49//19
f 35//20 49//20 39//20
f 35//19 39//19 40//19
f 35//21 40//21 50//21
f 38//20 37//20 47//20
f 38//20 47//20 48//20
f 36//21 38//21 48//21
f 36//21 48//21 49//21
f 32//22 34//22 79//22
f 32//22 79//22 80//22
f 44//19 43//19 45//19
f 44//19 45//19 46//19
f 41//22 78//22 82//22
f 41//21 82//21 31//21
f 41//19 31//19 32//19
f 41//19 32//19 80//19
f 41//19 80//19 76//19
f 41//19 76//19 42//19
f 39//21 54//21 58//21
f 39//21 58//21 62//21
f 39//22 62//22 66//22
f 39//21 66//21 70//21
f 39//22 70//22 74//22
f 39//21 74//21 41//21
f 39//23 41//23 43//23
f 39//23 43//23 44//23
f 41//24 42//24 45//24
f 41//24 45//24 43//24
f 42//21 72//21 68//21
f 42//22 68//22 64//22
f 42//21 64//21 60//21
f 42//21 60//21 56//21
f 42//21 56//21 52//21
f 42//22 52//22 40//22
f 42//25 40//25 46//25
f 42//25 46//25 45//25
f 40//26 39//26 44//26
f 40//26 44//26 46//26
f 47//27 51//27 53//27
f 47//27 53//27 48//27
f 48//21 53//21 54//21
f 48//21 54//21 39//21
f 48//22 39//22 49//22
f 47//22 37//22 35//22
f 47//22 35//22 50//22
f 51//22 47//22 50//22
f 51//21 50//21 40//21
f 51//22 40//22 52//22
f 51//20 55//20 57//20
f 51//20 57//20 53//20
f 53//21 57//21 58//21
f 53//21 58//21 54//21
f 55//22 51//22 52//22
f 55//22 52//22 56//22
f 55//28 59//28 61//28
f 55//28 61//28 57//28
f 57//21 61//21 62//21
f 57//21 62//21 58//21
f 59//22 55//22 56//22
f 59//22 56//22 60//22
f 59//20 63//20 65//20
f 59//20 65//20 61//20
f 61//21 65//21 66//21
f 61//21 66//21 62//21
f 63//22 59//22 60//22
f 63//22 60//22 64//22
f 63//20 67//20 69//20
f 63//20 69//20 65//20
f 65//21 69//21 70//21
f 65//21 70//21 66//21
f 67//22 63//22 64//22
f 67//22 64//22 68//22
f 67//29 71//29 73//29
f 67//29 73//29 69//29
f 69//21 73//21 74//21
f 69//21 74//21 70//21
f 71//22 67//22 68//22
f 71//22 68//22 72//22
f 71//20 75//20 77//20
f 71//20 77//20 73//20
f 73//21 77//21 78//21
f 73//21 78//21 41//21
f 73//22 41//22 74//22
f 75//22 71//22 72//22
f 75//21 72//21 42//21
f 75//22 42//22 76//22
f 75//30 79//30 81//30
f 75//30 81//30 77//30
f 77//21 81//21 82//21
f 77//21 82//21 78//21
f 79//22 75//22 76//22
f 79//22 76//22 80//22
f 79//20 34//20 33//20
f 79//20 33//20 81//20
f 81//21 33//21 31//21
f 81//21 31//21 82//21
