<?xml version="1.0" standalone="no"?><!-- Generator: Gravit.io --><svg xmlns="http://www.w3.org/2000/svg" xmlns:xlink="http://www.w3.org/1999/xlink" style="isolation:isolate" viewBox="0 0 300 300" width="300" height="300"><clipPath id="_clipPath_D0JuzCFKgXmaryWcSCJJHojrSUrQzJoK"><rect x="31.492" y="182.035" width="237.017" height="117.965" transform="matrix(1,0,0,1,0,0)" id="fiat_500" fill="rgb(255,255,255)"/></clipPath><g clip-path="url(#_clipPath_D0JuzCFKgXmaryWcSCJJHojrSUrQzJoK)"><g id="Group"><path d=" M 210.491 282 L 95.492 282 Q 88.464 252.811 63.492 254 Q 49.492 254.666 44.492 270 L 31.492 270 Q 33.159 240.666 41.492 234 C 49.825 227.333 72.158 190.666 82.492 187 C 92.825 183.333 151.825 179.666 176.491 184 Q 184.296 185.371 198.577 210 Q 203.57 216.664 212.491 220 C 225.921 225.021 256.159 224 262.492 238 Q 268.824 252 268.492 274 L 262.492 274 Q 256.824 255 237.491 254 Q 218.159 253 212.491 274 L 210.491 282 Z " id="body" fill="rgb(255,0,0)"/><path d=" M 258.491 279 C 258.491 267.409 249.081 258 237.491 258 C 225.902 258 216.491 267.409 216.491 279 C 216.491 290.59 225.902 300 237.491 300 C 249.081 300 258.491 290.59 258.491 279 Z  M 88.492 279 C 88.492 267.409 79.082 258 67.492 258 C 55.901 258 46.492 267.409 46.492 279 C 46.492 290.59 55.901 300 67.492 300 C 79.082 300 88.492 290.59 88.492 279 Z " fill-rule="evenodd" id="wheels" fill="rgb(0,0,0)"/><path d=" M 75.492 218 Q 81.492 201.333 90.492 197 Q 99.492 192.666 116.492 193 L 113.492 218 L 75.492 218 Z " id="window/back" fill="rgb(0,0,0)"/><path d=" M 127.492 218 L 194.491 218 Q 184.241 199.5 175.491 195 C 166.741 190.5 139.742 191 129.492 193 Q 128.241 193.244 127.492 218 Z " id="window/front" fill="rgb(0,0,0)"/></g></g></svg>